<svg xmlns="http://www.w3.org/2000/svg" viewBox="0 0 100 100"><path fill="none" stroke="#000" stroke-miterlimit="10" d="M51.5 36.5c-5.52 0-10-4.7-10-10.5s4.48-10.5 10-10.5 10 4.7 10 10.5-4.48 10.5-10 10.5zM37.15 46.72l15.32 15.19m32.17-45.82L52.47 61.91M98 16.5l-13-.13M54.64 78.51l43.4-62.3M20.43 47.36l34.21 31.15M20.43 47.36l16.72-.64m41.23 4.09l-7.02 10.21m14.3 23.62l12.51-.51m0 0L78.38 50.81m-7.02 10.21l14.3 23.62M22.34 54.32l8.3 7.09M2 84.5h13m15.64-23.1L14.68 84.38m-13.02-.89l20.68-29.17"/></svg>